<?xml version="1.0" encoding="utf-8"?>
<!-- Generator: Adobe Illustrator 24.1.1, SVG Export Plug-In . SVG Version: 6.00 Build 0)  -->
<svg version="1.1" id="Layer_1" xmlns="http://www.w3.org/2000/svg" xmlns:xlink="http://www.w3.org/1999/xlink" x="0px" y="0px"
	 viewBox="0 0 512 512" style="enable-background:new 0 0 512 512;" xml:space="preserve">
<g>
	<path d="M373.65,298.29l-12.09-12.09c-4.17-4.17-10.91-4.17-15.08,0l-60.23,60.23c-4.17,4.17-4.17,10.91,0,15.08l12.15,12.16
		c2.51,2.58,3.54,6.25,2.75,9.76c-12.13,57.57,24.69,114.06,82.26,126.2c7.11,1.5,14.37,2.27,21.65,2.29c11.54,0,23-1.85,33.93-5.5
		c5.6-1.83,8.68-7.85,6.85-13.46l-2.58-4.21l-52.23-52.24c-2-2-3.12-4.72-3.12-7.55v-30.1c0-5.88,4.78-10.66,10.66-10.66h30.08
		c2.82,0,5.53,1.12,7.53,3.11l52.41,52.34c4.17,4.17,10.91,4.17,15.08,0l2.56-4.11c19.04-55.63-10.62-116.17-66.26-135.22
		c-18.2-6.23-37.75-7.42-56.58-3.42C379.92,301.73,376.25,300.75,373.65,298.29z"/>
	<path d="M225.95,150.57l-12.15-12.13c-2.52-2.57-3.55-6.26-2.74-9.77c12.22-57.52-24.53-114.05-82.05-126.25
		c-18.81-4-38.35-2.82-56.54,3.41c-5.58,1.9-8.56,7.96-6.65,13.53l2.59,4.14l52.38,52.41c1.98,2.01,3.08,4.72,3.07,7.53v30.16
		c0,5.89-4.77,10.66-10.66,10.66H83.11c-2.84,0-5.55-1.12-7.55-3.13L23.35,68.91c-4.18-4.16-10.92-4.13-15.08,0.04l-2.58,4.22
		c-18.55,55.81,11.65,116.1,67.46,134.66c17.9,5.95,37.08,7.04,55.54,3.15c3.51-0.81,7.2,0.21,9.77,2.74l12.17,12.17
		c4.17,4.17,10.92,4.17,15.08,0l60.24-60.22c4.17-4.16,4.18-10.9,0.02-15.08L225.95,150.57z"/>
	<path d="M373.76,213.71c2.56-2.53,6.24-3.56,9.75-2.74c57.54,12.15,114.04-24.65,126.19-82.19c3.92-18.52,2.81-37.74-3.18-55.7
		c-1.81-5.6-7.83-8.66-13.43-6.84l-4.22,2.57l-52.24,52.3c-2,2.01-4.72,3.13-7.55,3.13h-30.08c-5.88,0-10.66-4.77-10.66-10.66V83.44
		c0-2.82,1.12-5.54,3.11-7.55l52.34-52.41c4.17-4.17,4.17-10.91,0-15.08l-4.11-2.55c-55.61-19.07-116.15,10.57-135.22,66.18
		c-6.25,18.23-7.43,37.81-3.42,56.67c0.79,3.51-0.23,7.19-2.73,9.77L138.35,298.44c-2.57,2.52-6.26,3.55-9.77,2.73
		c-57.51-12.22-114.04,24.49-126.25,82c-4.01,18.84-2.82,38.42,3.42,56.63c1.91,5.57,7.96,8.57,13.54,6.65l4.34-2.79l52.43-52.45
		c2.01-1.95,4.71-3.03,7.51-3.01h30.15c5.89,0,10.66,4.78,10.66,10.66v30.14c0,2.83-1.12,5.55-3.13,7.55l-52.23,52.2
		c-4.16,4.17-4.13,10.91,0.04,15.08l4.22,2.58c10.91,3.62,22.35,5.48,33.86,5.5c58.82-0.17,106.38-47.99,106.22-106.81
		c-0.02-7.28-0.78-14.55-2.29-21.68c-0.81-3.5,0.22-7.19,2.74-9.76L373.76,213.71z"/>
</g>
</svg>
