<?xml version="1.0" ?><svg width="32px" height="32px" viewBox="0 0 32 32" xmlns="http://www.w3.org/2000/svg"><g data-name="24. Calendar" id="_24._Calendar"><path d="M29,2H26V1a1,1,0,0,0-2,0V2H8V1A1,1,0,0,0,6,1V2H3A2,2,0,0,0,1,4V8A2,2,0,0,0,2,9.72V25a3,3,0,0,0,3,3H8a10,10,0,0,0,16,0h3a3,3,0,0,0,3-3V9.72A2,2,0,0,0,31,8V4A2,2,0,0,0,29,2ZM3,4H6V5A1,1,0,0,0,8,5V4H24V5a1,1,0,0,0,2,0V4h3V8H3ZM16,30a8,8,0,1,1,8-8A8,8,0,0,1,16,30Zm12-5a1,1,0,0,1-1,1H25.16A9.92,9.92,0,0,0,26,22,10,10,0,0,0,6,22a9.92,9.92,0,0,0,.84,4H5a1,1,0,0,1-1-1V10H28Z"/><path d="M16,19h2a1,1,0,0,0,0-2H17a1,1,0,0,0-2,0v.18A3,3,0,0,0,16,23a1,1,0,0,1,0,2H14a1,1,0,0,0,0,2h1a1,1,0,0,0,2,0v-.18A3,3,0,0,0,16,21a1,1,0,0,1,0-2Z"/></g></svg>